<svg 
  xmlns="http://www.w3.org/2000/svg" 
  xmlns:xlink="http://www.w3.org/1999/xlink" 
  width="500" zoomAndPan="magnify" viewBox="0 0 375 374.999991" height="500" preserveAspectRatio="xMidYMid meet" version="1.0"><defs><clipPath id="fb312501bf"><path d="M 94.144531 94.144531 L 259 94.144531 L 259 280.894531 L 94.144531 280.894531 Z M 94.144531 94.144531 " clip-rule="nonzero"/></clipPath><clipPath id="6d22987ea3"><path d="M 134 163 L 280.894531 163 L 280.894531 234 L 134 234 Z M 134 163 " clip-rule="nonzero"/></clipPath></defs><path fill="#ffffff" d="M 255.96875 247.949219 C 241.574219 260.78125 222.660156 268.59375 201.851562 268.59375 C 177.09375 268.59375 154.886719 257.492188 140 240.054688 C 152.996094 252.390625 170.511719 259.957031 189.839844 259.957031 C 204.5625 259.957031 218.300781 255.515625 229.730469 247.949219 Z M 255.96875 247.949219 " fill-opacity="1" fill-rule="evenodd"/><g clip-path="url(#fb312501bf)"><path fill="#f94f2e" d="M 118.121094 187.496094 C 118.121094 141.4375 155.460938 104.097656 201.519531 104.097656 C 223.726562 104.097656 243.960938 112.816406 258.929688 126.960938 C 241.820312 106.8125 216.324219 94.0625 187.785156 94.0625 C 136.214844 94.0625 94.433594 135.84375 94.433594 187.414062 C 94.433594 238.984375 136.214844 280.765625 187.785156 280.765625 C 216.242188 280.765625 241.738281 268.019531 258.929688 247.867188 C 243.960938 262.015625 223.808594 270.730469 201.519531 270.730469 C 155.460938 270.730469 118.121094 233.390625 118.121094 187.332031 Z M 118.121094 187.496094 " fill-opacity="1" fill-rule="evenodd"/></g><g clip-path="url(#6d22987ea3)"><path fill="#f94f2e" d="M 200.039062 193.417969 L 217.96875 216.941406 L 270.855469 179.519531 L 274.558594 184.371094 L 280.5625 163.726562 L 259.011719 163.890625 L 262.546875 168.414062 L 220.191406 199.753906 L 202.671875 177.132812 L 134.652344 232.652344 C 135.476562 233.886719 133.75 231.5 134.652344 232.652344 C 199.957031 193.335938 134.652344 232.652344 199.957031 193.335938 Z M 200.039062 193.417969 " fill-opacity="1" fill-rule="evenodd"/></g><path fill="#ffffff" d="M 229.894531 127.046875 C 218.464844 119.476562 204.726562 115.035156 190.007812 115.035156 C 170.675781 115.035156 153.160156 122.605469 140.164062 134.941406 C 155.050781 117.421875 177.257812 106.402344 202.015625 106.402344 C 222.824219 106.402344 241.738281 114.214844 256.132812 127.046875 Z M 229.894531 127.046875 " fill-opacity="1" fill-rule="evenodd"/><path fill="#ffffff" d="M 175.941406 169.730469 L 142.054688 169.730469 L 142.054688 221.382812 L 175.941406 193.75 Z M 175.941406 169.730469 " fill-opacity="1" fill-rule="evenodd"/><path fill="#ffffff" d="M 169.445312 216.53125 C 160.3125 222.042969 151.183594 227.550781 142.054688 233.0625 L 142.054688 236.351562 L 142.878906 237.175781 C 152.171875 245.976562 163.605469 251.980469 175.941406 254.53125 L 175.941406 212.746094 C 173.804688 214.0625 171.582031 215.378906 169.445312 216.695312 Z M 169.445312 216.53125 " fill-opacity="1" fill-rule="evenodd"/><path fill="#f94f2e" d="M 182.027344 208.964844 L 182.027344 255.351562 C 184.660156 255.679688 187.292969 255.84375 190.007812 255.84375 C 198.972656 255.84375 207.773438 254.117188 215.996094 250.746094 L 215.996094 220.972656 L 199.054688 198.765625 C 193.378906 202.136719 187.703125 205.59375 182.109375 208.964844 Z M 182.027344 208.964844 " fill-opacity="1" fill-rule="evenodd"/><path fill="#f94f2e" d="M 182.027344 188.8125 L 203.414062 171.292969 L 215.914062 187.496094 L 215.914062 158.382812 L 182.027344 158.382812 Z M 182.027344 188.8125 " fill-opacity="1" fill-rule="evenodd"/><path fill="#ffffff" d="M 222.082031 147.277344 L 222.082031 193.253906 L 255.96875 168.167969 L 255.96875 166.605469 L 250.703125 159.863281 L 255.96875 159.78125 L 255.96875 147.277344 Z M 222.082031 147.277344 " fill-opacity="1" fill-rule="evenodd"/><path fill="#ffffff" d="M 255.96875 194.980469 L 222.082031 219 L 222.082031 247.867188 C 223.972656 246.878906 225.867188 245.730469 227.675781 244.578125 L 228.664062 243.917969 L 255.96875 243.917969 Z M 255.96875 194.980469 " fill-opacity="1" fill-rule="evenodd"/></svg>